#!OML:ASF E:\Steps\Project 1\Capture day 1\Session 2\Subject.ASF
:FULLY-SPECIFIED
:DEGREES
539
root -5.76938 16.1579 -9.30619 -157.026 64.9672 -184.129
lowerback -28.4553 -5.15385 -3.74944
upperback -1.3774 -5.63118 2.58259
thorax 14.1559 -2.72287 2.69044
lowerneck -16.2238 1.4852 5.96373
upperneck 36.7515 4.99403 -7.6697
head 16.1921 2.42113 -3.33725
rclavicle -7.70291e-015 3.97569e-016
rhumerus -42.3212 -20.292 -73.4165
rradius 36.2865
rwrist -5.59632
rhand 39.6493 -59.4532
rfingers 7.12502
rthumb 62.1038 -70.8172
lclavicle -7.70291e-015 3.97569e-016
lhumerus -29.8593 -3.29529 84.6167
lradius 27.8418
lwrist -0.902678
lhand -20.5624 -11.0781
lfingers 7.12502
lthumb 5.79684 18.8226
rfemur -34.7681 24.744 2.33702
rtibia 18.0532
rfoot -12.9045 26.3153
rtoes -0.872611
lfemur -34.8551 -24.1754 -6.37739
ltibia 17.416
lfoot -8.70377 -10.9386
ltoes -21.4991
540
root -5.79711 16.1606 -9.35211 -156.82 65.8754 -183.973
lowerback -28.535 -5.08093 -3.81675
upperback -1.23916 -5.51949 2.54715
thorax 14.3446 -2.68325 2.72315
lowerneck -16.7193 1.4402 5.80568
upperneck 37.0631 4.91823 -7.5302
head 16.4586 2.37318 -3.2746
rclavicle -1.44119e-014 4.94974e-014
rhumerus -42.0362 -20.0643 -74.0142
rradius 36.6063
rwrist -6.39117
rhand 39.0211 -60.02
rfingers 7.12502
rthumb 61.5789 -72.0286
lclavicle -1.44119e-014 4.94974e-014
lhumerus -29.5034 -2.86408 84.4696
lradius 27.6834
lwrist -1.46213
lhand -21.0973 -11.1943
lfingers 7.12502
lthumb 5.28044 18.7199
rfemur -35.2507 24.6973 2.03633
rtibia 18.2364
rfoot -12.7818 26.6994
rtoes -0.724294
lfemur -34.6158 -23.9642 -6.6147
ltibia 17.1661
lfoot -8.8054 -10.3966
ltoes -20.4167
541
root -5.81995 16.167 -9.41074 -157.349 66.6129 -184.269
lowerback -28.5075 -5.06483 -3.92208
upperback -0.930134 -5.47999 2.43781
thorax 14.6833 -2.68634 2.66723
lowerneck -17.2806 1.40723 5.70692
upperneck 37.3685 4.84577 -7.42568
head 16.746 2.32777 -3.23824
rclavicle 1.91827e-014 -3.37934e-014
rhumerus -41.5748 -20.1877 -74.3787
rradius 36.6898
rwrist -6.71153
rhand 38.5665 -60.4931
rfingers 7.12502
rthumb 61.1966 -72.9527
lclavicle 1.91827e-014 -3.37934e-014
lhumerus -29.1147 -2.93198 84.4682
lradius 27.6274
lwrist -1.40725
lhand -21.1212 -11.2142
lfingers 7.12502
lthumb 5.25734 18.7006
rfemur -35.2993 24.8568 1.54754
rtibia 18.6127
rfoot -13.013 26.9422
rtoes -2.07975
lfemur -33.9865 -24.0197 -7.27073
ltibia 16.8671
lfoot -8.95552 -9.81869
ltoes -21.1302
542
root -5.84067 16.1752 -9.47045 -158.116 67.335 -184.594
lowerback -28.2133 -5.03904 -4.03364
upperback -0.631925 -5.43984 2.3368
thorax 14.8876 -2.69276 2.63922
lowerneck -17.7254 1.36056 5.7507
upperneck 37.6799 4.73692 -7.38218
head 17.0137 2.28547 -3.26264
rclavicle 2.18663e-014 5.36719e-015
rhumerus -41.172 -20.2822 -74.6259
rradius 36.6516
rwrist -6.97848
rhand 38.2805 -60.7409
rfingers 7.12502
rthumb 60.9551 -73.4778
lclavicle 2.18663e-014 5.36719e-015
lhumerus -28.8645 -3.78701 84.647
lradius 27.6537
lwrist -0.410526
lhand -20.5172 -11.1875
lfingers 7.12502
lthumb 5.8405 18.712
rfemur -35.1055 24.916 1.2891
rtibia 19.0103
rfoot -12.4294 27.1734
rtoes -0.242929
lfemur -33.0775 -24.0103 -8.09478
ltibia 16.5133
lfoot -9.02764 -9.39285
ltoes -21.986
543
root -5.87381 16.1816 -9.50505 -158.521 68.1186 -184.938
lowerback -27.8785 -5.01816 -4.36474
upperback -0.594804 -5.32318 2.29068
thorax 14.7857 -2.66917 2.83189
lowerneck -18.0484 1.3238 5.52598
upperneck 37.9332 4.73024 -7.27665
head 17.2232 2.25921 -3.18651
rclavicle -2.89729e-014 4.33351e-014
rhumerus -41.1054 -20.6312 -74.7931
rradius 36.7571
rwrist -7.29634
rhand 37.3075 -61.2833
rfingers 7.12502
rthumb 60.1282 -74.9282
lclavicle -2.89729e-014 4.33351e-014
lhumerus -28.8182 -5.10384 84.8901
lradius 27.7081
lwrist 0.589035
lhand -20.1915 -11.2319
lfingers 7.12502
lthumb 6.1549 18.6586
rfemur -35.482 24.7442 1.03599
rtibia 19.3681
rfoot -13.663 27.0063
rtoes -6.30175
lfemur -32.777 -23.6374 -8.66744
ltibia 16.367
lfoot -9.26411 -8.98695
ltoes -25.016
544
root -5.92202 16.1883 -9.51868 -157.634 68.6878 -184.615
lowerback -27.8821 -5.0444 -4.5424
upperback -0.825198 -5.29904 2.39327
thorax 14.5443 -2.66236 3.0564
lowerneck -18.3032 1.29699 5.26491
upperneck 38.1304 4.75289 -7.17015
head 17.3886 2.24044 -3.09447
rclavicle -2.07481e-014 3.97569e-016
rhumerus -41.2279 -21.1248 -74.787
rradius 36.8042
rwrist -7.07682
rhand 36.9344 -61.8431
rfingers 7.12502
rthumb 59.8091 -75.8223
lclavicle -2.07481e-014 3.97569e-016
lhumerus -28.8773 -5.93323 85.0949
lradius 27.7454
lwrist 0.719718
lhand -20.3482 -11.1161
lfingers 7.12502
lthumb 6.00366 18.7788
rfemur -36.7591 24.2138 1.07042
rtibia 19.9297
rfoot -17.144 25.6839
rtoes -24.4624
lfemur -33.5416 -22.8275 -8.53005
ltibia 16.5264
lfoot -9.43518 -8.8765
ltoes -27.074
